<?xml version="1.0" standalone="no"?>
<!DOCTYPE svg PUBLIC "-//W3C//DTD SVG 20010904//EN"
 "http://www.w3.org/TR/2001/REC-SVG-20010904/DTD/svg10.dtd">
<svg version="1.0" xmlns="http://www.w3.org/2000/svg"
 width="360.000000pt" height="120.000000pt" viewBox="0 0 360.000000 120.000000"
 preserveAspectRatio="xMidYMid meet">

<g transform="translate(0.000000,120.000000) scale(0.100000,-0.100000)"
fill="#000000" stroke="none">
<path d="M170 617 l0 -444 48 8 c26 4 55 8 65 8 16 1 17 19 17 238 0 130 4
233 8 227 5 -5 39 -97 76 -204 88 -257 80 -240 113 -235 15 2 49 7 76 10 l47
6 0 415 0 414 -70 0 -70 0 -2 -247 -3 -248 -90 248 -89 247 -63 0 -63 0 0
-443z"/>
<path d="M750 651 l0 -409 43 4 c102 9 300 24 323 24 23 0 24 3 24 67 l0 66
-125 -6 -125 -7 0 105 0 105 95 0 95 0 0 71 0 71 -95 -6 -95 -7 0 101 0 100
125 0 125 0 0 65 0 65 -195 0 -195 0 0 -409z"/>
<path d="M1230 993 l0 -68 72 0 73 0 3 -323 2 -322 43 0 c23 0 52 3 64 6 l23
6 2 317 3 316 73 3 72 3 0 64 0 65 -215 0 -215 0 0 -67z"/>
<path d="M1750 675 l0 -385 70 0 70 0 0 160 0 160 95 0 95 0 0 65 0 65 -95 0
-95 0 0 95 0 95 125 0 125 0 0 65 0 65 -195 0 -195 0 0 -385z"/>
<path d="M2230 671 l0 -388 177 -7 c97 -4 181 -8 187 -9 7 -1 12 24 14 64 l3
67 -121 7 -120 7 0 324 0 324 -70 0 -70 0 0 -389z"/>
<path d="M2722 658 l3 -403 68 -3 67 -3 0 406 0 405 -70 0 -70 0 2 -402z"/>
<path d="M3061 860 c43 -111 79 -207 79 -215 0 -7 -38 -102 -85 -211 -47 -108
-84 -198 -83 -199 2 -2 34 -5 72 -6 l70 -4 47 110 c26 61 51 109 56 108 4 -2
29 -58 55 -125 l46 -123 76 -11 c42 -5 76 -8 76 -4 0 3 -40 108 -88 234 l-88
228 88 204 c48 113 88 207 88 209 0 3 -33 5 -74 5 l-73 0 -49 -115 c-26 -63
-50 -112 -53 -109 -3 2 -23 53 -46 112 l-41 107 -76 3 -76 3 79 -201z"/>
</g>
</svg>
